<svg width="108" height="860" viewBox="0 0 108 860" fill="none" xmlns="http://www.w3.org/2000/svg">
<mask id="path-1-inside-1_11_720" fill="white">
<path fill-rule="evenodd" clip-rule="evenodd" d="M105.429 860C39.3596 741.343 0 592.106 0 430C0 267.894 39.3596 118.657 105.429 0L108 0V860H105.429Z"/>
</mask>
<path fill-rule="evenodd" clip-rule="evenodd" d="M105.429 860C39.3596 741.343 0 592.106 0 430C0 267.894 39.3596 118.657 105.429 0L108 0V860H105.429Z" fill="#FFFBF9"/>
<path d="M105.429 860V861H104.842L104.556 860.487L105.429 860ZM105.429 0L104.556 -0.486482L104.842 -1H105.429V0ZM108 0L108 -1H109V0H108ZM108 860H109V861H108V860ZM1 430C1 591.949 40.3221 741.016 106.303 859.513L104.556 860.487C38.397 741.67 -1 592.264 -1 430H1ZM106.303 0.486482C40.3221 118.984 1 268.051 1 430H-1C-1 267.736 38.397 118.33 104.556 -0.486482L106.303 0.486482ZM108 1H105.429V-1H108L108 1ZM107 860V0H109V860H107ZM105.429 859H108V861H105.429V859Z" fill="#DACFCA" mask="url(#path-1-inside-1_11_720)"/>
<path d="M55.5 440.5L66 430L55.5 419.5" stroke="#DACFCA" stroke-width="2" stroke-linecap="round" stroke-linejoin="round"/>
</svg>
