<svg width="24.000000" height="24.000000" viewBox="0 0 24 24" fill="none" xmlns="http://www.w3.org/2000/svg" xmlns:xlink="http://www.w3.org/1999/xlink">
	<desc>
			Created with Pixso.
	</desc>
	<defs>
		<clipPath id="clip11_1038">
			<rect id="Navigation / Map_Pin" rx="0.000000" width="23.000000" height="23.000000" transform="translate(0.500000 0.500000)" fill="white" fill-opacity="0"/>
		</clipPath>
	</defs>
	<g clip-path="url(#clip11_1038)">
		<path id="Vector" d="M5 9.92C5 8.08 5.73 6.32 7.05 5.02C8.36 3.72 10.14 3 12 3C13.85 3 15.63 3.72 16.94 5.02C18.26 6.32 18.99 8.08 18.99 9.92C18.99 14.77 14.75 18.78 12.87 20.32C12.6 20.54 12.47 20.65 12.27 20.71C12.11 20.75 11.88 20.75 11.72 20.71C11.52 20.65 11.39 20.54 11.12 20.32C9.24 18.78 5 14.77 5 9.92Z" stroke="#A3887B" stroke-opacity="1.000000" stroke-width="1.500000" stroke-linejoin="round"/>
		<path id="Ellipse 1" d="M12 14C14.2 14 16 12.2 16 10C16 7.79 14.2 6 12 6C9.79 6 8 7.79 8 10C8 12.2 9.79 14 12 14ZM12.58 12.43Q12.29 12.5 12 12.5Q11.7 12.5 11.41 12.43Q11.21 12.38 11.02 12.3Q10.82 12.21 10.64 12.1Q10.42 11.95 10.23 11.76Q10.04 11.57 9.89 11.35Q9.78 11.17 9.69 10.97Q9.61 10.78 9.56 10.58Q9.5 10.29 9.5 10Q9.5 9.7 9.56 9.41Q9.61 9.21 9.69 9.02Q9.78 8.82 9.89 8.64Q10.04 8.42 10.23 8.23Q10.42 8.04 10.64 7.89Q10.82 7.78 11.02 7.69Q11.21 7.61 11.41 7.56Q11.7 7.5 12 7.5Q12.29 7.5 12.58 7.56Q12.78 7.61 12.97 7.69Q13.17 7.78 13.35 7.89Q13.57 8.04 13.76 8.23Q13.95 8.42 14.1 8.64Q14.21 8.82 14.3 9.02Q14.38 9.21 14.43 9.41Q14.5 9.7 14.5 10Q14.5 10.29 14.43 10.58Q14.38 10.78 14.3 10.97Q14.21 11.17 14.1 11.35Q13.95 11.57 13.76 11.76Q13.57 11.95 13.35 12.1Q13.17 12.21 12.97 12.3Q12.78 12.38 12.58 12.43Z" fill="#A3887B" fill-opacity="1.000000" fill-rule="evenodd"/>
	</g>
</svg>
